<?xml version="1.0" encoding="UTF-8"?>
<svg xmlns="http://www.w3.org/2000/svg" xmlns:xlink="http://www.w3.org/1999/xlink" width="1000pt" height="100pt" viewBox="0 0 1000 100" version="1.1">
<g id="surface1">
<path style="fill-rule:nonzero;fill:rgb(47.784314%,51.392157%,47.901961%);fill-opacity:1;stroke-width:2;stroke-linecap:butt;stroke-linejoin:miter;stroke:rgb(47.784314%,51.392157%,47.901961%);stroke-opacity:1;stroke-miterlimit:10;" d="M 0 0 L 50 0 L 50 100 L 0 100 Z M 0 0 "/>
<path style="fill-rule:nonzero;fill:rgb(45.372549%,52.588235%,45.607843%);fill-opacity:1;stroke-width:2;stroke-linecap:butt;stroke-linejoin:miter;stroke:rgb(45.372549%,52.588235%,45.607843%);stroke-opacity:1;stroke-miterlimit:10;" d="M 50 0 L 100 0 L 100 100 L 50 100 Z M 50 0 "/>
<path style="fill-rule:nonzero;fill:rgb(42.960784%,53.784314%,43.313725%);fill-opacity:1;stroke-width:2;stroke-linecap:butt;stroke-linejoin:miter;stroke:rgb(42.960784%,53.784314%,43.313725%);stroke-opacity:1;stroke-miterlimit:10;" d="M 100 0 L 150 0 L 150 100 L 100 100 Z M 100 0 "/>
<path style="fill-rule:nonzero;fill:rgb(40.54902%,54.980392%,41.019608%);fill-opacity:1;stroke-width:2;stroke-linecap:butt;stroke-linejoin:miter;stroke:rgb(40.54902%,54.980392%,41.019608%);stroke-opacity:1;stroke-miterlimit:10;" d="M 150 0 L 200 0 L 200 100 L 150 100 Z M 150 0 "/>
<path style="fill-rule:nonzero;fill:rgb(38.137255%,56.176471%,38.72549%);fill-opacity:1;stroke-width:2;stroke-linecap:butt;stroke-linejoin:miter;stroke:rgb(38.137255%,56.176471%,38.72549%);stroke-opacity:1;stroke-miterlimit:10;" d="M 200 0 L 250 0 L 250 100 L 200 100 Z M 200 0 "/>
<path style="fill-rule:nonzero;fill:rgb(35.72549%,57.372549%,36.431373%);fill-opacity:1;stroke-width:2;stroke-linecap:butt;stroke-linejoin:miter;stroke:rgb(35.72549%,57.372549%,36.431373%);stroke-opacity:1;stroke-miterlimit:10;" d="M 250 0 L 300 0 L 300 100 L 250 100 Z M 250 0 "/>
<path style="fill-rule:nonzero;fill:rgb(33.313725%,58.568627%,34.137255%);fill-opacity:1;stroke-width:2;stroke-linecap:butt;stroke-linejoin:miter;stroke:rgb(33.313725%,58.568627%,34.137255%);stroke-opacity:1;stroke-miterlimit:10;" d="M 300 0 L 350 0 L 350 100 L 300 100 Z M 300 0 "/>
<path style="fill-rule:nonzero;fill:rgb(30.901961%,59.764706%,31.843137%);fill-opacity:1;stroke-width:2;stroke-linecap:butt;stroke-linejoin:miter;stroke:rgb(30.901961%,59.764706%,31.843137%);stroke-opacity:1;stroke-miterlimit:10;" d="M 350 0 L 400 0 L 400 100 L 350 100 Z M 350 0 "/>
<path style="fill-rule:nonzero;fill:rgb(28.490196%,60.960784%,29.54902%);fill-opacity:1;stroke-width:2;stroke-linecap:butt;stroke-linejoin:miter;stroke:rgb(28.490196%,60.960784%,29.54902%);stroke-opacity:1;stroke-miterlimit:10;" d="M 400 0 L 450 0 L 450 100 L 400 100 Z M 400 0 "/>
<path style="fill-rule:nonzero;fill:rgb(26.078431%,62.156863%,27.254902%);fill-opacity:1;stroke-width:2;stroke-linecap:butt;stroke-linejoin:miter;stroke:rgb(26.078431%,62.156863%,27.254902%);stroke-opacity:1;stroke-miterlimit:10;" d="M 450 0 L 500 0 L 500 100 L 450 100 Z M 450 0 "/>
<path style="fill-rule:nonzero;fill:rgb(23.666667%,63.352941%,24.960784%);fill-opacity:1;stroke-width:2;stroke-linecap:butt;stroke-linejoin:miter;stroke:rgb(23.666667%,63.352941%,24.960784%);stroke-opacity:1;stroke-miterlimit:10;" d="M 500 0 L 550 0 L 550 100 L 500 100 Z M 500 0 "/>
<path style="fill-rule:nonzero;fill:rgb(21.254902%,64.54902%,22.666667%);fill-opacity:1;stroke-width:2;stroke-linecap:butt;stroke-linejoin:miter;stroke:rgb(21.254902%,64.54902%,22.666667%);stroke-opacity:1;stroke-miterlimit:10;" d="M 550 0 L 600 0 L 600 100 L 550 100 Z M 550 0 "/>
<path style="fill-rule:nonzero;fill:rgb(18.843137%,65.745098%,20.372549%);fill-opacity:1;stroke-width:2;stroke-linecap:butt;stroke-linejoin:miter;stroke:rgb(18.843137%,65.745098%,20.372549%);stroke-opacity:1;stroke-miterlimit:10;" d="M 600 0 L 650 0 L 650 100 L 600 100 Z M 600 0 "/>
<path style="fill-rule:nonzero;fill:rgb(16.431373%,66.941176%,18.078431%);fill-opacity:1;stroke-width:2;stroke-linecap:butt;stroke-linejoin:miter;stroke:rgb(16.431373%,66.941176%,18.078431%);stroke-opacity:1;stroke-miterlimit:10;" d="M 650 0 L 700 0 L 700 100 L 650 100 Z M 650 0 "/>
<path style="fill-rule:nonzero;fill:rgb(14.019608%,68.137255%,15.784314%);fill-opacity:1;stroke-width:2;stroke-linecap:butt;stroke-linejoin:miter;stroke:rgb(14.019608%,68.137255%,15.784314%);stroke-opacity:1;stroke-miterlimit:10;" d="M 700 0 L 750 0 L 750 100 L 700 100 Z M 700 0 "/>
<path style="fill-rule:nonzero;fill:rgb(11.607843%,69.333333%,13.490196%);fill-opacity:1;stroke-width:2;stroke-linecap:butt;stroke-linejoin:miter;stroke:rgb(11.607843%,69.333333%,13.490196%);stroke-opacity:1;stroke-miterlimit:10;" d="M 750 0 L 800 0 L 800 100 L 750 100 Z M 750 0 "/>
<path style="fill-rule:nonzero;fill:rgb(9.196078%,70.529412%,11.196078%);fill-opacity:1;stroke-width:2;stroke-linecap:butt;stroke-linejoin:miter;stroke:rgb(9.196078%,70.529412%,11.196078%);stroke-opacity:1;stroke-miterlimit:10;" d="M 800 0 L 850 0 L 850 100 L 800 100 Z M 800 0 "/>
<path style="fill-rule:nonzero;fill:rgb(6.784314%,71.72549%,8.901961%);fill-opacity:1;stroke-width:2;stroke-linecap:butt;stroke-linejoin:miter;stroke:rgb(6.784314%,71.72549%,8.901961%);stroke-opacity:1;stroke-miterlimit:10;" d="M 850 0 L 900 0 L 900 100 L 850 100 Z M 850 0 "/>
<path style="fill-rule:nonzero;fill:rgb(4.372549%,72.921569%,6.607843%);fill-opacity:1;stroke-width:2;stroke-linecap:butt;stroke-linejoin:miter;stroke:rgb(4.372549%,72.921569%,6.607843%);stroke-opacity:1;stroke-miterlimit:10;" d="M 900 0 L 950 0 L 950 100 L 900 100 Z M 900 0 "/>
<path style="fill-rule:nonzero;fill:rgb(1.960784%,74.117647%,4.313725%);fill-opacity:1;stroke-width:2;stroke-linecap:butt;stroke-linejoin:miter;stroke:rgb(1.960784%,74.117647%,4.313725%);stroke-opacity:1;stroke-miterlimit:10;" d="M 950 0 L 1000 0 L 1000 100 L 950 100 Z M 950 0 "/>
</g>
</svg>
