<?xml version="1.0" encoding="UTF-8"?>
<svg xmlns="http://www.w3.org/2000/svg" xmlns:xlink="http://www.w3.org/1999/xlink" width="1000pt" height="100pt" viewBox="0 0 1000 100" version="1.1">
<g id="surface1">
<path style="fill-rule:nonzero;fill:rgb(100%,100%,100%);fill-opacity:1;stroke-width:2;stroke-linecap:butt;stroke-linejoin:miter;stroke:rgb(100%,100%,100%);stroke-opacity:1;stroke-miterlimit:10;" d="M 0 0 L 111 0 L 111 100 L 0 100 Z M 0 0 "/>
<path style="fill-rule:nonzero;fill:rgb(94.117647%,94.117647%,94.117647%);fill-opacity:1;stroke-width:2;stroke-linecap:butt;stroke-linejoin:miter;stroke:rgb(94.117647%,94.117647%,94.117647%);stroke-opacity:1;stroke-miterlimit:10;" d="M 111 0 L 222 0 L 222 100 L 111 100 Z M 111 0 "/>
<path style="fill-rule:nonzero;fill:rgb(85.098039%,85.098039%,85.098039%);fill-opacity:1;stroke-width:2;stroke-linecap:butt;stroke-linejoin:miter;stroke:rgb(85.098039%,85.098039%,85.098039%);stroke-opacity:1;stroke-miterlimit:10;" d="M 222 0 L 333 0 L 333 100 L 222 100 Z M 222 0 "/>
<path style="fill-rule:nonzero;fill:rgb(74.117647%,74.117647%,74.117647%);fill-opacity:1;stroke-width:2;stroke-linecap:butt;stroke-linejoin:miter;stroke:rgb(74.117647%,74.117647%,74.117647%);stroke-opacity:1;stroke-miterlimit:10;" d="M 333 0 L 444 0 L 444 100 L 333 100 Z M 333 0 "/>
<path style="fill-rule:nonzero;fill:rgb(58.823529%,58.823529%,58.823529%);fill-opacity:1;stroke-width:2;stroke-linecap:butt;stroke-linejoin:miter;stroke:rgb(58.823529%,58.823529%,58.823529%);stroke-opacity:1;stroke-miterlimit:10;" d="M 444 0 L 555 0 L 555 100 L 444 100 Z M 444 0 "/>
<path style="fill-rule:nonzero;fill:rgb(45.098039%,45.098039%,45.098039%);fill-opacity:1;stroke-width:2;stroke-linecap:butt;stroke-linejoin:miter;stroke:rgb(45.098039%,45.098039%,45.098039%);stroke-opacity:1;stroke-miterlimit:10;" d="M 555 0 L 666 0 L 666 100 L 555 100 Z M 555 0 "/>
<path style="fill-rule:nonzero;fill:rgb(32.156863%,32.156863%,32.156863%);fill-opacity:1;stroke-width:2;stroke-linecap:butt;stroke-linejoin:miter;stroke:rgb(32.156863%,32.156863%,32.156863%);stroke-opacity:1;stroke-miterlimit:10;" d="M 666 0 L 777 0 L 777 100 L 666 100 Z M 666 0 "/>
<path style="fill-rule:nonzero;fill:rgb(14.509804%,14.509804%,14.509804%);fill-opacity:1;stroke-width:2;stroke-linecap:butt;stroke-linejoin:miter;stroke:rgb(14.509804%,14.509804%,14.509804%);stroke-opacity:1;stroke-miterlimit:10;" d="M 777 0 L 888 0 L 888 100 L 777 100 Z M 777 0 "/>
<path style="fill-rule:nonzero;fill:rgb(0%,0%,0%);fill-opacity:1;stroke-width:2;stroke-linecap:butt;stroke-linejoin:miter;stroke:rgb(0%,0%,0%);stroke-opacity:1;stroke-miterlimit:10;" d="M 888 0 L 999 0 L 999 100 L 888 100 Z M 888 0 "/>
</g>
</svg>
