<?xml version="1.0" encoding="UTF-8"?>
<svg xmlns="http://www.w3.org/2000/svg" xmlns:xlink="http://www.w3.org/1999/xlink" width="1000pt" height="100pt" viewBox="0 0 1000 100" version="1.1">
<g id="surface1">
<path style="fill-rule:nonzero;fill:rgb(100%,96.862745%,98.431373%);fill-opacity:1;stroke-width:2;stroke-linecap:butt;stroke-linejoin:miter;stroke:rgb(100%,96.862745%,98.431373%);stroke-opacity:1;stroke-miterlimit:10;" d="M 0 0 L 111 0 L 111 100 L 0 100 Z M 0 0 "/>
<path style="fill-rule:nonzero;fill:rgb(92.54902%,90.588235%,94.901961%);fill-opacity:1;stroke-width:2;stroke-linecap:butt;stroke-linejoin:miter;stroke:rgb(92.54902%,90.588235%,94.901961%);stroke-opacity:1;stroke-miterlimit:10;" d="M 111 0 L 222 0 L 222 100 L 111 100 Z M 111 0 "/>
<path style="fill-rule:nonzero;fill:rgb(81.568627%,81.960784%,90.196078%);fill-opacity:1;stroke-width:2;stroke-linecap:butt;stroke-linejoin:miter;stroke:rgb(81.568627%,81.960784%,90.196078%);stroke-opacity:1;stroke-miterlimit:10;" d="M 222 0 L 333 0 L 333 100 L 222 100 Z M 222 0 "/>
<path style="fill-rule:nonzero;fill:rgb(65.098039%,74.117647%,85.882353%);fill-opacity:1;stroke-width:2;stroke-linecap:butt;stroke-linejoin:miter;stroke:rgb(65.098039%,74.117647%,85.882353%);stroke-opacity:1;stroke-miterlimit:10;" d="M 333 0 L 444 0 L 444 100 L 333 100 Z M 333 0 "/>
<path style="fill-rule:nonzero;fill:rgb(45.490196%,66.27451%,81.176471%);fill-opacity:1;stroke-width:2;stroke-linecap:butt;stroke-linejoin:miter;stroke:rgb(45.490196%,66.27451%,81.176471%);stroke-opacity:1;stroke-miterlimit:10;" d="M 444 0 L 555 0 L 555 100 L 444 100 Z M 444 0 "/>
<path style="fill-rule:nonzero;fill:rgb(21.176471%,56.470588%,75.294118%);fill-opacity:1;stroke-width:2;stroke-linecap:butt;stroke-linejoin:miter;stroke:rgb(21.176471%,56.470588%,75.294118%);stroke-opacity:1;stroke-miterlimit:10;" d="M 555 0 L 666 0 L 666 100 L 555 100 Z M 555 0 "/>
<path style="fill-rule:nonzero;fill:rgb(1.960784%,43.921569%,69.019608%);fill-opacity:1;stroke-width:2;stroke-linecap:butt;stroke-linejoin:miter;stroke:rgb(1.960784%,43.921569%,69.019608%);stroke-opacity:1;stroke-miterlimit:10;" d="M 666 0 L 777 0 L 777 100 L 666 100 Z M 666 0 "/>
<path style="fill-rule:nonzero;fill:rgb(1.568627%,35.294118%,55.294118%);fill-opacity:1;stroke-width:2;stroke-linecap:butt;stroke-linejoin:miter;stroke:rgb(1.568627%,35.294118%,55.294118%);stroke-opacity:1;stroke-miterlimit:10;" d="M 777 0 L 888 0 L 888 100 L 777 100 Z M 777 0 "/>
<path style="fill-rule:nonzero;fill:rgb(0.784314%,21.960784%,34.509804%);fill-opacity:1;stroke-width:2;stroke-linecap:butt;stroke-linejoin:miter;stroke:rgb(0.784314%,21.960784%,34.509804%);stroke-opacity:1;stroke-miterlimit:10;" d="M 888 0 L 999 0 L 999 100 L 888 100 Z M 888 0 "/>
</g>
</svg>
