<?xml version="1.0" encoding="UTF-8"?>
<svg xmlns="http://www.w3.org/2000/svg" xmlns:xlink="http://www.w3.org/1999/xlink" width="1000pt" height="100pt" viewBox="0 0 1000 100" version="1.1">
<g id="surface1">
<path style="fill-rule:nonzero;fill:rgb(100%,96.862745%,95.294118%);fill-opacity:1;stroke-width:2;stroke-linecap:butt;stroke-linejoin:miter;stroke:rgb(100%,96.862745%,95.294118%);stroke-opacity:1;stroke-miterlimit:10;" d="M 0 0 L 111 0 L 111 100 L 0 100 Z M 0 0 "/>
<path style="fill-rule:nonzero;fill:rgb(99.215686%,87.843137%,86.666667%);fill-opacity:1;stroke-width:2;stroke-linecap:butt;stroke-linejoin:miter;stroke:rgb(99.215686%,87.843137%,86.666667%);stroke-opacity:1;stroke-miterlimit:10;" d="M 111 0 L 222 0 L 222 100 L 111 100 Z M 111 0 "/>
<path style="fill-rule:nonzero;fill:rgb(98.823529%,77.254902%,75.294118%);fill-opacity:1;stroke-width:2;stroke-linecap:butt;stroke-linejoin:miter;stroke:rgb(98.823529%,77.254902%,75.294118%);stroke-opacity:1;stroke-miterlimit:10;" d="M 222 0 L 333 0 L 333 100 L 222 100 Z M 222 0 "/>
<path style="fill-rule:nonzero;fill:rgb(98.039216%,62.352941%,70.980392%);fill-opacity:1;stroke-width:2;stroke-linecap:butt;stroke-linejoin:miter;stroke:rgb(98.039216%,62.352941%,70.980392%);stroke-opacity:1;stroke-miterlimit:10;" d="M 333 0 L 444 0 L 444 100 L 333 100 Z M 333 0 "/>
<path style="fill-rule:nonzero;fill:rgb(96.862745%,40.784314%,63.137255%);fill-opacity:1;stroke-width:2;stroke-linecap:butt;stroke-linejoin:miter;stroke:rgb(96.862745%,40.784314%,63.137255%);stroke-opacity:1;stroke-miterlimit:10;" d="M 444 0 L 555 0 L 555 100 L 444 100 Z M 444 0 "/>
<path style="fill-rule:nonzero;fill:rgb(86.666667%,20.392157%,59.215686%);fill-opacity:1;stroke-width:2;stroke-linecap:butt;stroke-linejoin:miter;stroke:rgb(86.666667%,20.392157%,59.215686%);stroke-opacity:1;stroke-miterlimit:10;" d="M 555 0 L 666 0 L 666 100 L 555 100 Z M 555 0 "/>
<path style="fill-rule:nonzero;fill:rgb(68.235294%,0.392157%,49.411765%);fill-opacity:1;stroke-width:2;stroke-linecap:butt;stroke-linejoin:miter;stroke:rgb(68.235294%,0.392157%,49.411765%);stroke-opacity:1;stroke-miterlimit:10;" d="M 666 0 L 777 0 L 777 100 L 666 100 Z M 666 0 "/>
<path style="fill-rule:nonzero;fill:rgb(47.843137%,0.392157%,46.666667%);fill-opacity:1;stroke-width:2;stroke-linecap:butt;stroke-linejoin:miter;stroke:rgb(47.843137%,0.392157%,46.666667%);stroke-opacity:1;stroke-miterlimit:10;" d="M 777 0 L 888 0 L 888 100 L 777 100 Z M 777 0 "/>
<path style="fill-rule:nonzero;fill:rgb(28.627451%,0%,41.568627%);fill-opacity:1;stroke-width:2;stroke-linecap:butt;stroke-linejoin:miter;stroke:rgb(28.627451%,0%,41.568627%);stroke-opacity:1;stroke-miterlimit:10;" d="M 888 0 L 999 0 L 999 100 L 888 100 Z M 888 0 "/>
</g>
</svg>
