<?xml version="1.0" encoding="UTF-8"?>
<svg xmlns="http://www.w3.org/2000/svg" xmlns:xlink="http://www.w3.org/1999/xlink" width="1000pt" height="100pt" viewBox="0 0 1000 100" version="1.1">
<g id="surface1">
<path style="fill-rule:nonzero;fill:rgb(52.137255%,49.137255%,48.686275%);fill-opacity:1;stroke-width:2;stroke-linecap:butt;stroke-linejoin:miter;stroke:rgb(52.137255%,49.137255%,48.686275%);stroke-opacity:1;stroke-miterlimit:10;" d="M 0 0 L 50 0 L 50 100 L 0 100 Z M 0 0 "/>
<path style="fill-rule:nonzero;fill:rgb(54.078431%,48.078431%,47.176471%);fill-opacity:1;stroke-width:2;stroke-linecap:butt;stroke-linejoin:miter;stroke:rgb(54.078431%,48.078431%,47.176471%);stroke-opacity:1;stroke-miterlimit:10;" d="M 50 0 L 100 0 L 100 100 L 50 100 Z M 50 0 "/>
<path style="fill-rule:nonzero;fill:rgb(56.019608%,47.019608%,45.666667%);fill-opacity:1;stroke-width:2;stroke-linecap:butt;stroke-linejoin:miter;stroke:rgb(56.019608%,47.019608%,45.666667%);stroke-opacity:1;stroke-miterlimit:10;" d="M 100 0 L 150 0 L 150 100 L 100 100 Z M 100 0 "/>
<path style="fill-rule:nonzero;fill:rgb(57.960784%,45.960784%,44.156863%);fill-opacity:1;stroke-width:2;stroke-linecap:butt;stroke-linejoin:miter;stroke:rgb(57.960784%,45.960784%,44.156863%);stroke-opacity:1;stroke-miterlimit:10;" d="M 150 0 L 200 0 L 200 100 L 150 100 Z M 150 0 "/>
<path style="fill-rule:nonzero;fill:rgb(59.901961%,44.901961%,42.647059%);fill-opacity:1;stroke-width:2;stroke-linecap:butt;stroke-linejoin:miter;stroke:rgb(59.901961%,44.901961%,42.647059%);stroke-opacity:1;stroke-miterlimit:10;" d="M 200 0 L 250 0 L 250 100 L 200 100 Z M 200 0 "/>
<path style="fill-rule:nonzero;fill:rgb(61.843137%,43.843137%,41.137255%);fill-opacity:1;stroke-width:2;stroke-linecap:butt;stroke-linejoin:miter;stroke:rgb(61.843137%,43.843137%,41.137255%);stroke-opacity:1;stroke-miterlimit:10;" d="M 250 0 L 300 0 L 300 100 L 250 100 Z M 250 0 "/>
<path style="fill-rule:nonzero;fill:rgb(63.784314%,42.784314%,39.627451%);fill-opacity:1;stroke-width:2;stroke-linecap:butt;stroke-linejoin:miter;stroke:rgb(63.784314%,42.784314%,39.627451%);stroke-opacity:1;stroke-miterlimit:10;" d="M 300 0 L 350 0 L 350 100 L 300 100 Z M 300 0 "/>
<path style="fill-rule:nonzero;fill:rgb(65.72549%,41.72549%,38.117647%);fill-opacity:1;stroke-width:2;stroke-linecap:butt;stroke-linejoin:miter;stroke:rgb(65.72549%,41.72549%,38.117647%);stroke-opacity:1;stroke-miterlimit:10;" d="M 350 0 L 400 0 L 400 100 L 350 100 Z M 350 0 "/>
<path style="fill-rule:nonzero;fill:rgb(67.666667%,40.666667%,36.607843%);fill-opacity:1;stroke-width:2;stroke-linecap:butt;stroke-linejoin:miter;stroke:rgb(67.666667%,40.666667%,36.607843%);stroke-opacity:1;stroke-miterlimit:10;" d="M 400 0 L 450 0 L 450 100 L 400 100 Z M 400 0 "/>
<path style="fill-rule:nonzero;fill:rgb(69.607843%,39.607843%,35.098039%);fill-opacity:1;stroke-width:2;stroke-linecap:butt;stroke-linejoin:miter;stroke:rgb(69.607843%,39.607843%,35.098039%);stroke-opacity:1;stroke-miterlimit:10;" d="M 450 0 L 500 0 L 500 100 L 450 100 Z M 450 0 "/>
<path style="fill-rule:nonzero;fill:rgb(71.54902%,38.54902%,33.588235%);fill-opacity:1;stroke-width:2;stroke-linecap:butt;stroke-linejoin:miter;stroke:rgb(71.54902%,38.54902%,33.588235%);stroke-opacity:1;stroke-miterlimit:10;" d="M 500 0 L 550 0 L 550 100 L 500 100 Z M 500 0 "/>
<path style="fill-rule:nonzero;fill:rgb(73.490196%,37.490196%,32.078431%);fill-opacity:1;stroke-width:2;stroke-linecap:butt;stroke-linejoin:miter;stroke:rgb(73.490196%,37.490196%,32.078431%);stroke-opacity:1;stroke-miterlimit:10;" d="M 550 0 L 600 0 L 600 100 L 550 100 Z M 550 0 "/>
<path style="fill-rule:nonzero;fill:rgb(75.431373%,36.431373%,30.568627%);fill-opacity:1;stroke-width:2;stroke-linecap:butt;stroke-linejoin:miter;stroke:rgb(75.431373%,36.431373%,30.568627%);stroke-opacity:1;stroke-miterlimit:10;" d="M 600 0 L 650 0 L 650 100 L 600 100 Z M 600 0 "/>
<path style="fill-rule:nonzero;fill:rgb(77.372549%,35.372549%,29.058824%);fill-opacity:1;stroke-width:2;stroke-linecap:butt;stroke-linejoin:miter;stroke:rgb(77.372549%,35.372549%,29.058824%);stroke-opacity:1;stroke-miterlimit:10;" d="M 650 0 L 700 0 L 700 100 L 650 100 Z M 650 0 "/>
<path style="fill-rule:nonzero;fill:rgb(79.313725%,34.313725%,27.54902%);fill-opacity:1;stroke-width:2;stroke-linecap:butt;stroke-linejoin:miter;stroke:rgb(79.313725%,34.313725%,27.54902%);stroke-opacity:1;stroke-miterlimit:10;" d="M 700 0 L 750 0 L 750 100 L 700 100 Z M 700 0 "/>
<path style="fill-rule:nonzero;fill:rgb(81.254902%,33.254902%,26.039216%);fill-opacity:1;stroke-width:2;stroke-linecap:butt;stroke-linejoin:miter;stroke:rgb(81.254902%,33.254902%,26.039216%);stroke-opacity:1;stroke-miterlimit:10;" d="M 750 0 L 800 0 L 800 100 L 750 100 Z M 750 0 "/>
<path style="fill-rule:nonzero;fill:rgb(83.196078%,32.196078%,24.529412%);fill-opacity:1;stroke-width:2;stroke-linecap:butt;stroke-linejoin:miter;stroke:rgb(83.196078%,32.196078%,24.529412%);stroke-opacity:1;stroke-miterlimit:10;" d="M 800 0 L 850 0 L 850 100 L 800 100 Z M 800 0 "/>
<path style="fill-rule:nonzero;fill:rgb(85.137255%,31.137255%,23.019608%);fill-opacity:1;stroke-width:2;stroke-linecap:butt;stroke-linejoin:miter;stroke:rgb(85.137255%,31.137255%,23.019608%);stroke-opacity:1;stroke-miterlimit:10;" d="M 850 0 L 900 0 L 900 100 L 850 100 Z M 850 0 "/>
<path style="fill-rule:nonzero;fill:rgb(87.078431%,30.078431%,21.509804%);fill-opacity:1;stroke-width:2;stroke-linecap:butt;stroke-linejoin:miter;stroke:rgb(87.078431%,30.078431%,21.509804%);stroke-opacity:1;stroke-miterlimit:10;" d="M 900 0 L 950 0 L 950 100 L 900 100 Z M 900 0 "/>
<path style="fill-rule:nonzero;fill:rgb(89.019608%,29.019608%,20%);fill-opacity:1;stroke-width:2;stroke-linecap:butt;stroke-linejoin:miter;stroke:rgb(89.019608%,29.019608%,20%);stroke-opacity:1;stroke-miterlimit:10;" d="M 950 0 L 1000 0 L 1000 100 L 950 100 Z M 950 0 "/>
</g>
</svg>
