<?xml version="1.0" encoding="UTF-8"?>
<svg xmlns="http://www.w3.org/2000/svg" xmlns:xlink="http://www.w3.org/1999/xlink" width="1000pt" height="100pt" viewBox="0 0 1000 100" version="1.1">
<g id="surface1">
<path style="fill-rule:nonzero;fill:rgb(48.529412%,50.431373%,51.411765%);fill-opacity:1;stroke-width:2;stroke-linecap:butt;stroke-linejoin:miter;stroke:rgb(48.529412%,50.431373%,51.411765%);stroke-opacity:1;stroke-miterlimit:10;" d="M 0 0 L 50 0 L 50 100 L 0 100 Z M 0 0 "/>
<path style="fill-rule:nonzero;fill:rgb(46.862745%,50.666667%,52.627451%);fill-opacity:1;stroke-width:2;stroke-linecap:butt;stroke-linejoin:miter;stroke:rgb(46.862745%,50.666667%,52.627451%);stroke-opacity:1;stroke-miterlimit:10;" d="M 50 0 L 100 0 L 100 100 L 50 100 Z M 50 0 "/>
<path style="fill-rule:nonzero;fill:rgb(45.196078%,50.901961%,53.843137%);fill-opacity:1;stroke-width:2;stroke-linecap:butt;stroke-linejoin:miter;stroke:rgb(45.196078%,50.901961%,53.843137%);stroke-opacity:1;stroke-miterlimit:10;" d="M 100 0 L 150 0 L 150 100 L 100 100 Z M 100 0 "/>
<path style="fill-rule:nonzero;fill:rgb(43.529412%,51.137255%,55.058824%);fill-opacity:1;stroke-width:2;stroke-linecap:butt;stroke-linejoin:miter;stroke:rgb(43.529412%,51.137255%,55.058824%);stroke-opacity:1;stroke-miterlimit:10;" d="M 150 0 L 200 0 L 200 100 L 150 100 Z M 150 0 "/>
<path style="fill-rule:nonzero;fill:rgb(41.862745%,51.372549%,56.27451%);fill-opacity:1;stroke-width:2;stroke-linecap:butt;stroke-linejoin:miter;stroke:rgb(41.862745%,51.372549%,56.27451%);stroke-opacity:1;stroke-miterlimit:10;" d="M 200 0 L 250 0 L 250 100 L 200 100 Z M 200 0 "/>
<path style="fill-rule:nonzero;fill:rgb(40.196078%,51.607843%,57.490196%);fill-opacity:1;stroke-width:2;stroke-linecap:butt;stroke-linejoin:miter;stroke:rgb(40.196078%,51.607843%,57.490196%);stroke-opacity:1;stroke-miterlimit:10;" d="M 250 0 L 300 0 L 300 100 L 250 100 Z M 250 0 "/>
<path style="fill-rule:nonzero;fill:rgb(38.529412%,51.843137%,58.705882%);fill-opacity:1;stroke-width:2;stroke-linecap:butt;stroke-linejoin:miter;stroke:rgb(38.529412%,51.843137%,58.705882%);stroke-opacity:1;stroke-miterlimit:10;" d="M 300 0 L 350 0 L 350 100 L 300 100 Z M 300 0 "/>
<path style="fill-rule:nonzero;fill:rgb(36.862745%,52.078431%,59.921569%);fill-opacity:1;stroke-width:2;stroke-linecap:butt;stroke-linejoin:miter;stroke:rgb(36.862745%,52.078431%,59.921569%);stroke-opacity:1;stroke-miterlimit:10;" d="M 350 0 L 400 0 L 400 100 L 350 100 Z M 350 0 "/>
<path style="fill-rule:nonzero;fill:rgb(35.196078%,52.313725%,61.137255%);fill-opacity:1;stroke-width:2;stroke-linecap:butt;stroke-linejoin:miter;stroke:rgb(35.196078%,52.313725%,61.137255%);stroke-opacity:1;stroke-miterlimit:10;" d="M 400 0 L 450 0 L 450 100 L 400 100 Z M 400 0 "/>
<path style="fill-rule:nonzero;fill:rgb(33.529412%,52.54902%,62.352941%);fill-opacity:1;stroke-width:2;stroke-linecap:butt;stroke-linejoin:miter;stroke:rgb(33.529412%,52.54902%,62.352941%);stroke-opacity:1;stroke-miterlimit:10;" d="M 450 0 L 500 0 L 500 100 L 450 100 Z M 450 0 "/>
<path style="fill-rule:nonzero;fill:rgb(31.862745%,52.784314%,63.568627%);fill-opacity:1;stroke-width:2;stroke-linecap:butt;stroke-linejoin:miter;stroke:rgb(31.862745%,52.784314%,63.568627%);stroke-opacity:1;stroke-miterlimit:10;" d="M 500 0 L 550 0 L 550 100 L 500 100 Z M 500 0 "/>
<path style="fill-rule:nonzero;fill:rgb(30.196078%,53.019608%,64.784314%);fill-opacity:1;stroke-width:2;stroke-linecap:butt;stroke-linejoin:miter;stroke:rgb(30.196078%,53.019608%,64.784314%);stroke-opacity:1;stroke-miterlimit:10;" d="M 550 0 L 600 0 L 600 100 L 550 100 Z M 550 0 "/>
<path style="fill-rule:nonzero;fill:rgb(28.529412%,53.254902%,66%);fill-opacity:1;stroke-width:2;stroke-linecap:butt;stroke-linejoin:miter;stroke:rgb(28.529412%,53.254902%,66%);stroke-opacity:1;stroke-miterlimit:10;" d="M 600 0 L 650 0 L 650 100 L 600 100 Z M 600 0 "/>
<path style="fill-rule:nonzero;fill:rgb(26.862745%,53.490196%,67.215686%);fill-opacity:1;stroke-width:2;stroke-linecap:butt;stroke-linejoin:miter;stroke:rgb(26.862745%,53.490196%,67.215686%);stroke-opacity:1;stroke-miterlimit:10;" d="M 650 0 L 700 0 L 700 100 L 650 100 Z M 650 0 "/>
<path style="fill-rule:nonzero;fill:rgb(25.196078%,53.72549%,68.431373%);fill-opacity:1;stroke-width:2;stroke-linecap:butt;stroke-linejoin:miter;stroke:rgb(25.196078%,53.72549%,68.431373%);stroke-opacity:1;stroke-miterlimit:10;" d="M 700 0 L 750 0 L 750 100 L 700 100 Z M 700 0 "/>
<path style="fill-rule:nonzero;fill:rgb(23.529412%,53.960784%,69.647059%);fill-opacity:1;stroke-width:2;stroke-linecap:butt;stroke-linejoin:miter;stroke:rgb(23.529412%,53.960784%,69.647059%);stroke-opacity:1;stroke-miterlimit:10;" d="M 750 0 L 800 0 L 800 100 L 750 100 Z M 750 0 "/>
<path style="fill-rule:nonzero;fill:rgb(21.862745%,54.196078%,70.862745%);fill-opacity:1;stroke-width:2;stroke-linecap:butt;stroke-linejoin:miter;stroke:rgb(21.862745%,54.196078%,70.862745%);stroke-opacity:1;stroke-miterlimit:10;" d="M 800 0 L 850 0 L 850 100 L 800 100 Z M 800 0 "/>
<path style="fill-rule:nonzero;fill:rgb(20.196078%,54.431373%,72.078431%);fill-opacity:1;stroke-width:2;stroke-linecap:butt;stroke-linejoin:miter;stroke:rgb(20.196078%,54.431373%,72.078431%);stroke-opacity:1;stroke-miterlimit:10;" d="M 850 0 L 900 0 L 900 100 L 850 100 Z M 850 0 "/>
<path style="fill-rule:nonzero;fill:rgb(18.529412%,54.666667%,73.294118%);fill-opacity:1;stroke-width:2;stroke-linecap:butt;stroke-linejoin:miter;stroke:rgb(18.529412%,54.666667%,73.294118%);stroke-opacity:1;stroke-miterlimit:10;" d="M 900 0 L 950 0 L 950 100 L 900 100 Z M 900 0 "/>
<path style="fill-rule:nonzero;fill:rgb(16.862745%,54.901961%,74.509804%);fill-opacity:1;stroke-width:2;stroke-linecap:butt;stroke-linejoin:miter;stroke:rgb(16.862745%,54.901961%,74.509804%);stroke-opacity:1;stroke-miterlimit:10;" d="M 950 0 L 1000 0 L 1000 100 L 950 100 Z M 950 0 "/>
</g>
</svg>
