<?xml version="1.0" encoding="UTF-8"?>
<svg xmlns="http://www.w3.org/2000/svg" xmlns:xlink="http://www.w3.org/1999/xlink" width="1000pt" height="600pt" viewBox="0 0 1000 600" version="1.1">
<g id="surface1">
<path style="fill-rule:nonzero;fill:rgb(100%,100%,100%);fill-opacity:1;stroke-width:2;stroke-linecap:butt;stroke-linejoin:miter;stroke:rgb(100%,100%,100%);stroke-opacity:1;stroke-miterlimit:10;" d="M 0 0 L 111 0 L 111 100 L 0 100 Z M 0 0 "/>
<path style="fill-rule:nonzero;fill:rgb(94.117647%,94.117647%,94.117647%);fill-opacity:1;stroke-width:2;stroke-linecap:butt;stroke-linejoin:miter;stroke:rgb(94.117647%,94.117647%,94.117647%);stroke-opacity:1;stroke-miterlimit:10;" d="M 111 0 L 222 0 L 222 100 L 111 100 Z M 111 0 "/>
<path style="fill-rule:nonzero;fill:rgb(85.098039%,85.098039%,85.098039%);fill-opacity:1;stroke-width:2;stroke-linecap:butt;stroke-linejoin:miter;stroke:rgb(85.098039%,85.098039%,85.098039%);stroke-opacity:1;stroke-miterlimit:10;" d="M 222 0 L 333 0 L 333 100 L 222 100 Z M 222 0 "/>
<path style="fill-rule:nonzero;fill:rgb(74.117647%,74.117647%,74.117647%);fill-opacity:1;stroke-width:2;stroke-linecap:butt;stroke-linejoin:miter;stroke:rgb(74.117647%,74.117647%,74.117647%);stroke-opacity:1;stroke-miterlimit:10;" d="M 333 0 L 444 0 L 444 100 L 333 100 Z M 333 0 "/>
<path style="fill-rule:nonzero;fill:rgb(58.823529%,58.823529%,58.823529%);fill-opacity:1;stroke-width:2;stroke-linecap:butt;stroke-linejoin:miter;stroke:rgb(58.823529%,58.823529%,58.823529%);stroke-opacity:1;stroke-miterlimit:10;" d="M 444 0 L 555 0 L 555 100 L 444 100 Z M 444 0 "/>
<path style="fill-rule:nonzero;fill:rgb(45.098039%,45.098039%,45.098039%);fill-opacity:1;stroke-width:2;stroke-linecap:butt;stroke-linejoin:miter;stroke:rgb(45.098039%,45.098039%,45.098039%);stroke-opacity:1;stroke-miterlimit:10;" d="M 555 0 L 666 0 L 666 100 L 555 100 Z M 555 0 "/>
<path style="fill-rule:nonzero;fill:rgb(32.156863%,32.156863%,32.156863%);fill-opacity:1;stroke-width:2;stroke-linecap:butt;stroke-linejoin:miter;stroke:rgb(32.156863%,32.156863%,32.156863%);stroke-opacity:1;stroke-miterlimit:10;" d="M 666 0 L 777 0 L 777 100 L 666 100 Z M 666 0 "/>
<path style="fill-rule:nonzero;fill:rgb(14.509804%,14.509804%,14.509804%);fill-opacity:1;stroke-width:2;stroke-linecap:butt;stroke-linejoin:miter;stroke:rgb(14.509804%,14.509804%,14.509804%);stroke-opacity:1;stroke-miterlimit:10;" d="M 777 0 L 888 0 L 888 100 L 777 100 Z M 777 0 "/>
<path style="fill-rule:nonzero;fill:rgb(0%,0%,0%);fill-opacity:1;stroke-width:2;stroke-linecap:butt;stroke-linejoin:miter;stroke:rgb(0%,0%,0%);stroke-opacity:1;stroke-miterlimit:10;" d="M 888 0 L 999 0 L 999 100 L 888 100 Z M 888 0 "/>
<path style="fill-rule:nonzero;fill:rgb(100%,96.862745%,98.431373%);fill-opacity:1;stroke-width:2;stroke-linecap:butt;stroke-linejoin:miter;stroke:rgb(100%,96.862745%,98.431373%);stroke-opacity:1;stroke-miterlimit:10;" d="M 0 125 L 111 125 L 111 225 L 0 225 Z M 0 125 "/>
<path style="fill-rule:nonzero;fill:rgb(92.54902%,90.588235%,94.901961%);fill-opacity:1;stroke-width:2;stroke-linecap:butt;stroke-linejoin:miter;stroke:rgb(92.54902%,90.588235%,94.901961%);stroke-opacity:1;stroke-miterlimit:10;" d="M 111 125 L 222 125 L 222 225 L 111 225 Z M 111 125 "/>
<path style="fill-rule:nonzero;fill:rgb(81.568627%,81.960784%,90.196078%);fill-opacity:1;stroke-width:2;stroke-linecap:butt;stroke-linejoin:miter;stroke:rgb(81.568627%,81.960784%,90.196078%);stroke-opacity:1;stroke-miterlimit:10;" d="M 222 125 L 333 125 L 333 225 L 222 225 Z M 222 125 "/>
<path style="fill-rule:nonzero;fill:rgb(65.098039%,74.117647%,85.882353%);fill-opacity:1;stroke-width:2;stroke-linecap:butt;stroke-linejoin:miter;stroke:rgb(65.098039%,74.117647%,85.882353%);stroke-opacity:1;stroke-miterlimit:10;" d="M 333 125 L 444 125 L 444 225 L 333 225 Z M 333 125 "/>
<path style="fill-rule:nonzero;fill:rgb(45.490196%,66.27451%,81.176471%);fill-opacity:1;stroke-width:2;stroke-linecap:butt;stroke-linejoin:miter;stroke:rgb(45.490196%,66.27451%,81.176471%);stroke-opacity:1;stroke-miterlimit:10;" d="M 444 125 L 555 125 L 555 225 L 444 225 Z M 444 125 "/>
<path style="fill-rule:nonzero;fill:rgb(21.176471%,56.470588%,75.294118%);fill-opacity:1;stroke-width:2;stroke-linecap:butt;stroke-linejoin:miter;stroke:rgb(21.176471%,56.470588%,75.294118%);stroke-opacity:1;stroke-miterlimit:10;" d="M 555 125 L 666 125 L 666 225 L 555 225 Z M 555 125 "/>
<path style="fill-rule:nonzero;fill:rgb(1.960784%,43.921569%,69.019608%);fill-opacity:1;stroke-width:2;stroke-linecap:butt;stroke-linejoin:miter;stroke:rgb(1.960784%,43.921569%,69.019608%);stroke-opacity:1;stroke-miterlimit:10;" d="M 666 125 L 777 125 L 777 225 L 666 225 Z M 666 125 "/>
<path style="fill-rule:nonzero;fill:rgb(1.568627%,35.294118%,55.294118%);fill-opacity:1;stroke-width:2;stroke-linecap:butt;stroke-linejoin:miter;stroke:rgb(1.568627%,35.294118%,55.294118%);stroke-opacity:1;stroke-miterlimit:10;" d="M 777 125 L 888 125 L 888 225 L 777 225 Z M 777 125 "/>
<path style="fill-rule:nonzero;fill:rgb(0.784314%,21.960784%,34.509804%);fill-opacity:1;stroke-width:2;stroke-linecap:butt;stroke-linejoin:miter;stroke:rgb(0.784314%,21.960784%,34.509804%);stroke-opacity:1;stroke-miterlimit:10;" d="M 888 125 L 999 125 L 999 225 L 888 225 Z M 888 125 "/>
<path style="fill-rule:nonzero;fill:rgb(100%,96.862745%,95.294118%);fill-opacity:1;stroke-width:2;stroke-linecap:butt;stroke-linejoin:miter;stroke:rgb(100%,96.862745%,95.294118%);stroke-opacity:1;stroke-miterlimit:10;" d="M 0 250 L 111 250 L 111 350 L 0 350 Z M 0 250 "/>
<path style="fill-rule:nonzero;fill:rgb(99.215686%,87.843137%,86.666667%);fill-opacity:1;stroke-width:2;stroke-linecap:butt;stroke-linejoin:miter;stroke:rgb(99.215686%,87.843137%,86.666667%);stroke-opacity:1;stroke-miterlimit:10;" d="M 111 250 L 222 250 L 222 350 L 111 350 Z M 111 250 "/>
<path style="fill-rule:nonzero;fill:rgb(98.823529%,77.254902%,75.294118%);fill-opacity:1;stroke-width:2;stroke-linecap:butt;stroke-linejoin:miter;stroke:rgb(98.823529%,77.254902%,75.294118%);stroke-opacity:1;stroke-miterlimit:10;" d="M 222 250 L 333 250 L 333 350 L 222 350 Z M 222 250 "/>
<path style="fill-rule:nonzero;fill:rgb(98.039216%,62.352941%,70.980392%);fill-opacity:1;stroke-width:2;stroke-linecap:butt;stroke-linejoin:miter;stroke:rgb(98.039216%,62.352941%,70.980392%);stroke-opacity:1;stroke-miterlimit:10;" d="M 333 250 L 444 250 L 444 350 L 333 350 Z M 333 250 "/>
<path style="fill-rule:nonzero;fill:rgb(96.862745%,40.784314%,63.137255%);fill-opacity:1;stroke-width:2;stroke-linecap:butt;stroke-linejoin:miter;stroke:rgb(96.862745%,40.784314%,63.137255%);stroke-opacity:1;stroke-miterlimit:10;" d="M 444 250 L 555 250 L 555 350 L 444 350 Z M 444 250 "/>
<path style="fill-rule:nonzero;fill:rgb(86.666667%,20.392157%,59.215686%);fill-opacity:1;stroke-width:2;stroke-linecap:butt;stroke-linejoin:miter;stroke:rgb(86.666667%,20.392157%,59.215686%);stroke-opacity:1;stroke-miterlimit:10;" d="M 555 250 L 666 250 L 666 350 L 555 350 Z M 555 250 "/>
<path style="fill-rule:nonzero;fill:rgb(68.235294%,0.392157%,49.411765%);fill-opacity:1;stroke-width:2;stroke-linecap:butt;stroke-linejoin:miter;stroke:rgb(68.235294%,0.392157%,49.411765%);stroke-opacity:1;stroke-miterlimit:10;" d="M 666 250 L 777 250 L 777 350 L 666 350 Z M 666 250 "/>
<path style="fill-rule:nonzero;fill:rgb(47.843137%,0.392157%,46.666667%);fill-opacity:1;stroke-width:2;stroke-linecap:butt;stroke-linejoin:miter;stroke:rgb(47.843137%,0.392157%,46.666667%);stroke-opacity:1;stroke-miterlimit:10;" d="M 777 250 L 888 250 L 888 350 L 777 350 Z M 777 250 "/>
<path style="fill-rule:nonzero;fill:rgb(28.627451%,0%,41.568627%);fill-opacity:1;stroke-width:2;stroke-linecap:butt;stroke-linejoin:miter;stroke:rgb(28.627451%,0%,41.568627%);stroke-opacity:1;stroke-miterlimit:10;" d="M 888 250 L 999 250 L 999 350 L 888 350 Z M 888 250 "/>
<path style="fill-rule:nonzero;fill:rgb(100%,100%,89.803922%);fill-opacity:1;stroke-width:2;stroke-linecap:butt;stroke-linejoin:miter;stroke:rgb(100%,100%,89.803922%);stroke-opacity:1;stroke-miterlimit:10;" d="M 0 375 L 111 375 L 111 475 L 0 475 Z M 0 375 "/>
<path style="fill-rule:nonzero;fill:rgb(96.862745%,98.823529%,72.54902%);fill-opacity:1;stroke-width:2;stroke-linecap:butt;stroke-linejoin:miter;stroke:rgb(96.862745%,98.823529%,72.54902%);stroke-opacity:1;stroke-miterlimit:10;" d="M 111 375 L 222 375 L 222 475 L 111 475 Z M 111 375 "/>
<path style="fill-rule:nonzero;fill:rgb(85.098039%,94.117647%,63.921569%);fill-opacity:1;stroke-width:2;stroke-linecap:butt;stroke-linejoin:miter;stroke:rgb(85.098039%,94.117647%,63.921569%);stroke-opacity:1;stroke-miterlimit:10;" d="M 222 375 L 333 375 L 333 475 L 222 475 Z M 222 375 "/>
<path style="fill-rule:nonzero;fill:rgb(67.843137%,86.666667%,55.686275%);fill-opacity:1;stroke-width:2;stroke-linecap:butt;stroke-linejoin:miter;stroke:rgb(67.843137%,86.666667%,55.686275%);stroke-opacity:1;stroke-miterlimit:10;" d="M 333 375 L 444 375 L 444 475 L 333 475 Z M 333 375 "/>
<path style="fill-rule:nonzero;fill:rgb(47.058824%,77.647059%,47.45098%);fill-opacity:1;stroke-width:2;stroke-linecap:butt;stroke-linejoin:miter;stroke:rgb(47.058824%,77.647059%,47.45098%);stroke-opacity:1;stroke-miterlimit:10;" d="M 444 375 L 555 375 L 555 475 L 444 475 Z M 444 375 "/>
<path style="fill-rule:nonzero;fill:rgb(25.490196%,67.058824%,36.470588%);fill-opacity:1;stroke-width:2;stroke-linecap:butt;stroke-linejoin:miter;stroke:rgb(25.490196%,67.058824%,36.470588%);stroke-opacity:1;stroke-miterlimit:10;" d="M 555 375 L 666 375 L 666 475 L 555 475 Z M 555 375 "/>
<path style="fill-rule:nonzero;fill:rgb(13.72549%,51.764706%,26.27451%);fill-opacity:1;stroke-width:2;stroke-linecap:butt;stroke-linejoin:miter;stroke:rgb(13.72549%,51.764706%,26.27451%);stroke-opacity:1;stroke-miterlimit:10;" d="M 666 375 L 777 375 L 777 475 L 666 475 Z M 666 375 "/>
<path style="fill-rule:nonzero;fill:rgb(0%,40.784314%,21.568627%);fill-opacity:1;stroke-width:2;stroke-linecap:butt;stroke-linejoin:miter;stroke:rgb(0%,40.784314%,21.568627%);stroke-opacity:1;stroke-miterlimit:10;" d="M 777 375 L 888 375 L 888 475 L 777 475 Z M 777 375 "/>
<path style="fill-rule:nonzero;fill:rgb(0%,27.058824%,16.078431%);fill-opacity:1;stroke-width:2;stroke-linecap:butt;stroke-linejoin:miter;stroke:rgb(0%,27.058824%,16.078431%);stroke-opacity:1;stroke-miterlimit:10;" d="M 888 375 L 999 375 L 999 475 L 888 475 Z M 888 375 "/>
<path style="fill-rule:nonzero;fill:rgb(100%,100%,85.098039%);fill-opacity:1;stroke-width:2;stroke-linecap:butt;stroke-linejoin:miter;stroke:rgb(100%,100%,85.098039%);stroke-opacity:1;stroke-miterlimit:10;" d="M 0 500 L 111 500 L 111 600 L 0 600 Z M 0 500 "/>
<path style="fill-rule:nonzero;fill:rgb(92.941176%,97.254902%,69.411765%);fill-opacity:1;stroke-width:2;stroke-linecap:butt;stroke-linejoin:miter;stroke:rgb(92.941176%,97.254902%,69.411765%);stroke-opacity:1;stroke-miterlimit:10;" d="M 111 500 L 222 500 L 222 600 L 111 600 Z M 111 500 "/>
<path style="fill-rule:nonzero;fill:rgb(78.039216%,91.372549%,70.588235%);fill-opacity:1;stroke-width:2;stroke-linecap:butt;stroke-linejoin:miter;stroke:rgb(78.039216%,91.372549%,70.588235%);stroke-opacity:1;stroke-miterlimit:10;" d="M 222 500 L 333 500 L 333 600 L 222 600 Z M 222 500 "/>
<path style="fill-rule:nonzero;fill:rgb(49.803922%,80.392157%,73.333333%);fill-opacity:1;stroke-width:2;stroke-linecap:butt;stroke-linejoin:miter;stroke:rgb(49.803922%,80.392157%,73.333333%);stroke-opacity:1;stroke-miterlimit:10;" d="M 333 500 L 444 500 L 444 600 L 333 600 Z M 333 500 "/>
<path style="fill-rule:nonzero;fill:rgb(25.490196%,71.372549%,76.862745%);fill-opacity:1;stroke-width:2;stroke-linecap:butt;stroke-linejoin:miter;stroke:rgb(25.490196%,71.372549%,76.862745%);stroke-opacity:1;stroke-miterlimit:10;" d="M 444 500 L 555 500 L 555 600 L 444 600 Z M 444 500 "/>
<path style="fill-rule:nonzero;fill:rgb(11.372549%,56.862745%,75.294118%);fill-opacity:1;stroke-width:2;stroke-linecap:butt;stroke-linejoin:miter;stroke:rgb(11.372549%,56.862745%,75.294118%);stroke-opacity:1;stroke-miterlimit:10;" d="M 555 500 L 666 500 L 666 600 L 555 600 Z M 555 500 "/>
<path style="fill-rule:nonzero;fill:rgb(13.333333%,36.862745%,65.882353%);fill-opacity:1;stroke-width:2;stroke-linecap:butt;stroke-linejoin:miter;stroke:rgb(13.333333%,36.862745%,65.882353%);stroke-opacity:1;stroke-miterlimit:10;" d="M 666 500 L 777 500 L 777 600 L 666 600 Z M 666 500 "/>
<path style="fill-rule:nonzero;fill:rgb(14.509804%,20.392157%,58.039216%);fill-opacity:1;stroke-width:2;stroke-linecap:butt;stroke-linejoin:miter;stroke:rgb(14.509804%,20.392157%,58.039216%);stroke-opacity:1;stroke-miterlimit:10;" d="M 777 500 L 888 500 L 888 600 L 777 600 Z M 777 500 "/>
<path style="fill-rule:nonzero;fill:rgb(3.137255%,11.372549%,34.509804%);fill-opacity:1;stroke-width:2;stroke-linecap:butt;stroke-linejoin:miter;stroke:rgb(3.137255%,11.372549%,34.509804%);stroke-opacity:1;stroke-miterlimit:10;" d="M 888 500 L 999 500 L 999 600 L 888 600 Z M 888 500 "/>
</g>
</svg>
