<?xml version="1.0" encoding="UTF-8"?>
<svg xmlns="http://www.w3.org/2000/svg" xmlns:xlink="http://www.w3.org/1999/xlink" width="1000pt" height="100pt" viewBox="0 0 1000 100" version="1.1">
<g id="surface1">
<path style="fill-rule:nonzero;fill:rgb(97.490196%,92.019608%,87.921569%);fill-opacity:1;stroke-width:2;stroke-linecap:butt;stroke-linejoin:miter;stroke:rgb(97.490196%,92.019608%,87.921569%);stroke-opacity:1;stroke-miterlimit:10;" d="M 0 0 L 50 0 L 50 100 L 0 100 Z M 0 0 "/>
<path style="fill-rule:nonzero;fill:rgb(94.980392%,87.176471%,83.294118%);fill-opacity:1;stroke-width:2;stroke-linecap:butt;stroke-linejoin:miter;stroke:rgb(94.980392%,87.176471%,83.294118%);stroke-opacity:1;stroke-miterlimit:10;" d="M 50 0 L 100 0 L 100 100 L 50 100 Z M 50 0 "/>
<path style="fill-rule:nonzero;fill:rgb(92.470588%,82.333333%,78.666667%);fill-opacity:1;stroke-width:2;stroke-linecap:butt;stroke-linejoin:miter;stroke:rgb(92.470588%,82.333333%,78.666667%);stroke-opacity:1;stroke-miterlimit:10;" d="M 100 0 L 150 0 L 150 100 L 100 100 Z M 100 0 "/>
<path style="fill-rule:nonzero;fill:rgb(89.960784%,77.490196%,74.039216%);fill-opacity:1;stroke-width:2;stroke-linecap:butt;stroke-linejoin:miter;stroke:rgb(89.960784%,77.490196%,74.039216%);stroke-opacity:1;stroke-miterlimit:10;" d="M 150 0 L 200 0 L 200 100 L 150 100 Z M 150 0 "/>
<path style="fill-rule:nonzero;fill:rgb(87.45098%,72.647059%,69.411765%);fill-opacity:1;stroke-width:2;stroke-linecap:butt;stroke-linejoin:miter;stroke:rgb(87.45098%,72.647059%,69.411765%);stroke-opacity:1;stroke-miterlimit:10;" d="M 200 0 L 250 0 L 250 100 L 200 100 Z M 200 0 "/>
<path style="fill-rule:nonzero;fill:rgb(84.941176%,67.803922%,64.784314%);fill-opacity:1;stroke-width:2;stroke-linecap:butt;stroke-linejoin:miter;stroke:rgb(84.941176%,67.803922%,64.784314%);stroke-opacity:1;stroke-miterlimit:10;" d="M 250 0 L 300 0 L 300 100 L 250 100 Z M 250 0 "/>
<path style="fill-rule:nonzero;fill:rgb(82.431373%,62.960784%,60.156863%);fill-opacity:1;stroke-width:2;stroke-linecap:butt;stroke-linejoin:miter;stroke:rgb(82.431373%,62.960784%,60.156863%);stroke-opacity:1;stroke-miterlimit:10;" d="M 300 0 L 350 0 L 350 100 L 300 100 Z M 300 0 "/>
<path style="fill-rule:nonzero;fill:rgb(79.921569%,58.117647%,55.529412%);fill-opacity:1;stroke-width:2;stroke-linecap:butt;stroke-linejoin:miter;stroke:rgb(79.921569%,58.117647%,55.529412%);stroke-opacity:1;stroke-miterlimit:10;" d="M 350 0 L 400 0 L 400 100 L 350 100 Z M 350 0 "/>
<path style="fill-rule:nonzero;fill:rgb(77.411765%,53.27451%,50.901961%);fill-opacity:1;stroke-width:2;stroke-linecap:butt;stroke-linejoin:miter;stroke:rgb(77.411765%,53.27451%,50.901961%);stroke-opacity:1;stroke-miterlimit:10;" d="M 400 0 L 450 0 L 450 100 L 400 100 Z M 400 0 "/>
<path style="fill-rule:nonzero;fill:rgb(74.901961%,48.431373%,46.27451%);fill-opacity:1;stroke-width:2;stroke-linecap:butt;stroke-linejoin:miter;stroke:rgb(74.901961%,48.431373%,46.27451%);stroke-opacity:1;stroke-miterlimit:10;" d="M 450 0 L 500 0 L 500 100 L 450 100 Z M 450 0 "/>
<path style="fill-rule:nonzero;fill:rgb(72.392157%,43.588235%,41.647059%);fill-opacity:1;stroke-width:2;stroke-linecap:butt;stroke-linejoin:miter;stroke:rgb(72.392157%,43.588235%,41.647059%);stroke-opacity:1;stroke-miterlimit:10;" d="M 500 0 L 550 0 L 550 100 L 500 100 Z M 500 0 "/>
<path style="fill-rule:nonzero;fill:rgb(69.882353%,38.745098%,37.019608%);fill-opacity:1;stroke-width:2;stroke-linecap:butt;stroke-linejoin:miter;stroke:rgb(69.882353%,38.745098%,37.019608%);stroke-opacity:1;stroke-miterlimit:10;" d="M 550 0 L 600 0 L 600 100 L 550 100 Z M 550 0 "/>
<path style="fill-rule:nonzero;fill:rgb(67.372549%,33.901961%,32.392157%);fill-opacity:1;stroke-width:2;stroke-linecap:butt;stroke-linejoin:miter;stroke:rgb(67.372549%,33.901961%,32.392157%);stroke-opacity:1;stroke-miterlimit:10;" d="M 600 0 L 650 0 L 650 100 L 600 100 Z M 600 0 "/>
<path style="fill-rule:nonzero;fill:rgb(64.862745%,29.058824%,27.764706%);fill-opacity:1;stroke-width:2;stroke-linecap:butt;stroke-linejoin:miter;stroke:rgb(64.862745%,29.058824%,27.764706%);stroke-opacity:1;stroke-miterlimit:10;" d="M 650 0 L 700 0 L 700 100 L 650 100 Z M 650 0 "/>
<path style="fill-rule:nonzero;fill:rgb(62.352941%,24.215686%,23.137255%);fill-opacity:1;stroke-width:2;stroke-linecap:butt;stroke-linejoin:miter;stroke:rgb(62.352941%,24.215686%,23.137255%);stroke-opacity:1;stroke-miterlimit:10;" d="M 700 0 L 750 0 L 750 100 L 700 100 Z M 700 0 "/>
<path style="fill-rule:nonzero;fill:rgb(59.843137%,19.372549%,18.509804%);fill-opacity:1;stroke-width:2;stroke-linecap:butt;stroke-linejoin:miter;stroke:rgb(59.843137%,19.372549%,18.509804%);stroke-opacity:1;stroke-miterlimit:10;" d="M 750 0 L 800 0 L 800 100 L 750 100 Z M 750 0 "/>
<path style="fill-rule:nonzero;fill:rgb(57.333333%,14.529412%,13.882353%);fill-opacity:1;stroke-width:2;stroke-linecap:butt;stroke-linejoin:miter;stroke:rgb(57.333333%,14.529412%,13.882353%);stroke-opacity:1;stroke-miterlimit:10;" d="M 800 0 L 850 0 L 850 100 L 800 100 Z M 800 0 "/>
<path style="fill-rule:nonzero;fill:rgb(54.823529%,9.686275%,9.254902%);fill-opacity:1;stroke-width:2;stroke-linecap:butt;stroke-linejoin:miter;stroke:rgb(54.823529%,9.686275%,9.254902%);stroke-opacity:1;stroke-miterlimit:10;" d="M 850 0 L 900 0 L 900 100 L 850 100 Z M 850 0 "/>
<path style="fill-rule:nonzero;fill:rgb(52.313725%,4.843137%,4.627451%);fill-opacity:1;stroke-width:2;stroke-linecap:butt;stroke-linejoin:miter;stroke:rgb(52.313725%,4.843137%,4.627451%);stroke-opacity:1;stroke-miterlimit:10;" d="M 900 0 L 950 0 L 950 100 L 900 100 Z M 900 0 "/>
<path style="fill-rule:nonzero;fill:rgb(49.803922%,0%,0%);fill-opacity:1;stroke-width:2;stroke-linecap:butt;stroke-linejoin:miter;stroke:rgb(49.803922%,0%,0%);stroke-opacity:1;stroke-miterlimit:10;" d="M 950 0 L 1000 0 L 1000 100 L 950 100 Z M 950 0 "/>
</g>
</svg>
