<?xml version="1.0" encoding="UTF-8"?>
<svg xmlns="http://www.w3.org/2000/svg" xmlns:xlink="http://www.w3.org/1999/xlink" width="1000pt" height="100pt" viewBox="0 0 1000 100" version="1.1">
<g id="surface1">
<path style="fill-rule:nonzero;fill:rgb(96.431373%,92.019608%,92.607843%);fill-opacity:1;stroke-width:2;stroke-linecap:butt;stroke-linejoin:miter;stroke:rgb(96.431373%,92.019608%,92.607843%);stroke-opacity:1;stroke-miterlimit:10;" d="M 0 0 L 50 0 L 50 100 L 0 100 Z M 0 0 "/>
<path style="fill-rule:nonzero;fill:rgb(92.862745%,87.176471%,89.921569%);fill-opacity:1;stroke-width:2;stroke-linecap:butt;stroke-linejoin:miter;stroke:rgb(92.862745%,87.176471%,89.921569%);stroke-opacity:1;stroke-miterlimit:10;" d="M 50 0 L 100 0 L 100 100 L 50 100 Z M 50 0 "/>
<path style="fill-rule:nonzero;fill:rgb(89.294118%,82.333333%,87.235294%);fill-opacity:1;stroke-width:2;stroke-linecap:butt;stroke-linejoin:miter;stroke:rgb(89.294118%,82.333333%,87.235294%);stroke-opacity:1;stroke-miterlimit:10;" d="M 100 0 L 150 0 L 150 100 L 100 100 Z M 100 0 "/>
<path style="fill-rule:nonzero;fill:rgb(85.72549%,77.490196%,84.54902%);fill-opacity:1;stroke-width:2;stroke-linecap:butt;stroke-linejoin:miter;stroke:rgb(85.72549%,77.490196%,84.54902%);stroke-opacity:1;stroke-miterlimit:10;" d="M 150 0 L 200 0 L 200 100 L 150 100 Z M 150 0 "/>
<path style="fill-rule:nonzero;fill:rgb(82.156863%,72.647059%,81.862745%);fill-opacity:1;stroke-width:2;stroke-linecap:butt;stroke-linejoin:miter;stroke:rgb(82.156863%,72.647059%,81.862745%);stroke-opacity:1;stroke-miterlimit:10;" d="M 200 0 L 250 0 L 250 100 L 200 100 Z M 200 0 "/>
<path style="fill-rule:nonzero;fill:rgb(78.588235%,67.803922%,79.176471%);fill-opacity:1;stroke-width:2;stroke-linecap:butt;stroke-linejoin:miter;stroke:rgb(78.588235%,67.803922%,79.176471%);stroke-opacity:1;stroke-miterlimit:10;" d="M 250 0 L 300 0 L 300 100 L 250 100 Z M 250 0 "/>
<path style="fill-rule:nonzero;fill:rgb(75.019608%,62.960784%,76.490196%);fill-opacity:1;stroke-width:2;stroke-linecap:butt;stroke-linejoin:miter;stroke:rgb(75.019608%,62.960784%,76.490196%);stroke-opacity:1;stroke-miterlimit:10;" d="M 300 0 L 350 0 L 350 100 L 300 100 Z M 300 0 "/>
<path style="fill-rule:nonzero;fill:rgb(71.45098%,58.117647%,73.803922%);fill-opacity:1;stroke-width:2;stroke-linecap:butt;stroke-linejoin:miter;stroke:rgb(71.45098%,58.117647%,73.803922%);stroke-opacity:1;stroke-miterlimit:10;" d="M 350 0 L 400 0 L 400 100 L 350 100 Z M 350 0 "/>
<path style="fill-rule:nonzero;fill:rgb(67.882353%,53.27451%,71.117647%);fill-opacity:1;stroke-width:2;stroke-linecap:butt;stroke-linejoin:miter;stroke:rgb(67.882353%,53.27451%,71.117647%);stroke-opacity:1;stroke-miterlimit:10;" d="M 400 0 L 450 0 L 450 100 L 400 100 Z M 400 0 "/>
<path style="fill-rule:nonzero;fill:rgb(64.313725%,48.431373%,68.431373%);fill-opacity:1;stroke-width:2;stroke-linecap:butt;stroke-linejoin:miter;stroke:rgb(64.313725%,48.431373%,68.431373%);stroke-opacity:1;stroke-miterlimit:10;" d="M 450 0 L 500 0 L 500 100 L 450 100 Z M 450 0 "/>
<path style="fill-rule:nonzero;fill:rgb(60.745098%,43.588235%,65.745098%);fill-opacity:1;stroke-width:2;stroke-linecap:butt;stroke-linejoin:miter;stroke:rgb(60.745098%,43.588235%,65.745098%);stroke-opacity:1;stroke-miterlimit:10;" d="M 500 0 L 550 0 L 550 100 L 500 100 Z M 500 0 "/>
<path style="fill-rule:nonzero;fill:rgb(57.176471%,38.745098%,63.058824%);fill-opacity:1;stroke-width:2;stroke-linecap:butt;stroke-linejoin:miter;stroke:rgb(57.176471%,38.745098%,63.058824%);stroke-opacity:1;stroke-miterlimit:10;" d="M 550 0 L 600 0 L 600 100 L 550 100 Z M 550 0 "/>
<path style="fill-rule:nonzero;fill:rgb(53.607843%,33.901961%,60.372549%);fill-opacity:1;stroke-width:2;stroke-linecap:butt;stroke-linejoin:miter;stroke:rgb(53.607843%,33.901961%,60.372549%);stroke-opacity:1;stroke-miterlimit:10;" d="M 600 0 L 650 0 L 650 100 L 600 100 Z M 600 0 "/>
<path style="fill-rule:nonzero;fill:rgb(50.039216%,29.058824%,57.686275%);fill-opacity:1;stroke-width:2;stroke-linecap:butt;stroke-linejoin:miter;stroke:rgb(50.039216%,29.058824%,57.686275%);stroke-opacity:1;stroke-miterlimit:10;" d="M 650 0 L 700 0 L 700 100 L 650 100 Z M 650 0 "/>
<path style="fill-rule:nonzero;fill:rgb(46.470588%,24.215686%,55%);fill-opacity:1;stroke-width:2;stroke-linecap:butt;stroke-linejoin:miter;stroke:rgb(46.470588%,24.215686%,55%);stroke-opacity:1;stroke-miterlimit:10;" d="M 700 0 L 750 0 L 750 100 L 700 100 Z M 700 0 "/>
<path style="fill-rule:nonzero;fill:rgb(42.901961%,19.372549%,52.313725%);fill-opacity:1;stroke-width:2;stroke-linecap:butt;stroke-linejoin:miter;stroke:rgb(42.901961%,19.372549%,52.313725%);stroke-opacity:1;stroke-miterlimit:10;" d="M 750 0 L 800 0 L 800 100 L 750 100 Z M 750 0 "/>
<path style="fill-rule:nonzero;fill:rgb(39.333333%,14.529412%,49.627451%);fill-opacity:1;stroke-width:2;stroke-linecap:butt;stroke-linejoin:miter;stroke:rgb(39.333333%,14.529412%,49.627451%);stroke-opacity:1;stroke-miterlimit:10;" d="M 800 0 L 850 0 L 850 100 L 800 100 Z M 800 0 "/>
<path style="fill-rule:nonzero;fill:rgb(35.764706%,9.686275%,46.941176%);fill-opacity:1;stroke-width:2;stroke-linecap:butt;stroke-linejoin:miter;stroke:rgb(35.764706%,9.686275%,46.941176%);stroke-opacity:1;stroke-miterlimit:10;" d="M 850 0 L 900 0 L 900 100 L 850 100 Z M 850 0 "/>
<path style="fill-rule:nonzero;fill:rgb(32.196078%,4.843137%,44.254902%);fill-opacity:1;stroke-width:2;stroke-linecap:butt;stroke-linejoin:miter;stroke:rgb(32.196078%,4.843137%,44.254902%);stroke-opacity:1;stroke-miterlimit:10;" d="M 900 0 L 950 0 L 950 100 L 900 100 Z M 900 0 "/>
<path style="fill-rule:nonzero;fill:rgb(28.627451%,0%,41.568627%);fill-opacity:1;stroke-width:2;stroke-linecap:butt;stroke-linejoin:miter;stroke:rgb(28.627451%,0%,41.568627%);stroke-opacity:1;stroke-miterlimit:10;" d="M 950 0 L 1000 0 L 1000 100 L 950 100 Z M 950 0 "/>
</g>
</svg>
